<?xml version="1.0" standalone="no"?>
<!DOCTYPE svg PUBLIC "-//W3C//DTD SVG 20010904//EN"
 "http://www.w3.org/TR/2001/REC-SVG-20010904/DTD/svg10.dtd">
<svg version="1.0" xmlns="http://www.w3.org/2000/svg"
 width="300.000000pt" height="429.000000pt" viewBox="0 0 300.000000 429.000000"
 preserveAspectRatio="xMidYMid meet">
<metadata>
Created by potrace 1.16, written by Peter Selinger 2001-2019
</metadata>
<g transform="translate(0.000000,429.000000) scale(0.100000,-0.100000)"
fill="#000000" stroke="none">
<path d="M1390 4269 c-30 -4 -71 -14 -90 -22 -19 -9 -37 -15 -40 -14 -6 1
-118 -61 -138 -78 -17 -13 -122 -118 -141 -140 -7 -9 -31 -52 -52 -95 -71
-144 -69 -109 -66 -1035 4 -856 5 -883 46 -978 11 -26 21 -51 22 -55 6 -32
166 -215 181 -206 4 3 8 1 8 -4 0 -24 170 -106 245 -119 72 -11 229 -11 273 2
84 23 139 45 203 80 48 27 158 136 189 188 17 29 35 59 40 67 14 23 37 82 46
115 4 17 10 37 12 45 3 8 7 394 9 857 3 802 1 875 -24 953 -2 8 -4 16 -3 18 1
2 -6 14 -14 28 -9 13 -14 24 -10 24 9 0 -43 86 -74 123 -51 59 -146 147 -166
153 -11 4 -26 13 -34 20 -7 8 -25 17 -40 21 -15 3 -29 10 -32 14 -3 5 -15 10
-25 12 -11 1 -24 5 -30 9 -39 24 -190 33 -295 17z"/>
<path d="M2556 2108 c-3 -18 -8 -60 -11 -93 -20 -205 -142 -444 -315 -615
-136 -135 -303 -234 -477 -282 -67 -19 -103 -22 -258 -22 -167 0 -186 2 -269
27 -163 50 -292 121 -417 228 l-55 48 -155 -155 -154 -155 40 -35 c200 -175
411 -289 651 -350 126 -31 208 -39 419 -39 137 1 199 5 260 19 305 69 550 208
766 433 242 253 382 573 406 924 l6 99 -216 0 -216 0 -5 -32z"/>
</g>
</svg>
