<?xml version="1.0" standalone="no"?>
<!DOCTYPE svg PUBLIC "-//W3C//DTD SVG 20010904//EN"
 "http://www.w3.org/TR/2001/REC-SVG-20010904/DTD/svg10.dtd">
<svg version="1.0" xmlns="http://www.w3.org/2000/svg"
 width="272.000000pt" height="92.000000pt" viewBox="0 0 272.000000 92.000000"
 preserveAspectRatio="xMidYMid meet">
<metadata>
Created by potrace 1.16, written by Peter Selinger 2001-2019
</metadata>
<g transform="translate(0.000000,92.000000) scale(0.100000,-0.100000)"
fill="#000000" stroke="none">
<path d="M244 901 c-100 -37 -162 -89 -205 -174 -29 -56 -32 -72 -33 -162 -1
-70 3 -87 29 -139 72 -141 205 -216 358 -200 169 18 277 133 284 302 l2 72
-164 0 -165 0 0 -45 0 -45 110 0 c104 0 110 -1 110 -20 0 -28 -27 -79 -54
-102 -88 -78 -244 -77 -325 1 -127 125 -98 327 59 403 76 38 189 27 247 -25
21 -19 21 -19 60 17 l38 35 -30 27 c-75 66 -221 91 -321 55z"/>
<path d="M835 653 c-89 -47 -131 -124 -122 -228 6 -80 37 -132 101 -170 112
-66 270 -26 321 81 24 49 31 141 15 189 -16 47 -63 101 -111 126 -48 24 -160
26 -204 2z m145 -88 c47 -24 70 -62 70 -114 -1 -55 -16 -85 -56 -112 -80 -52
-180 14 -176 118 2 44 23 78 65 103 38 24 59 25 97 5z"/>
<path d="M1805 657 c-54 -32 -88 -66 -112 -114 -22 -46 -25 -62 -20 -113 9
-85 29 -119 106 -173 38 -26 53 -30 107 -30 41 0 71 6 87 16 22 14 26 15 31 1
6 -16 -14 -67 -37 -97 -20 -24 -79 -33 -117 -17 -17 7 -41 26 -53 41 -21 27
-23 28 -51 14 -15 -8 -35 -15 -42 -15 -29 0 -13 -35 43 -94 78 -80 257 -60
321 37 l27 40 3 254 3 253 -50 0 c-40 0 -51 -3 -51 -16 0 -13 -5 -12 -26 5
-21 16 -40 21 -88 20 -33 -1 -70 -6 -81 -12z m160 -110 c52 -52 58 -116 16
-184 -35 -57 -120 -57 -173 -1 -23 25 -28 39 -28 83 0 43 5 60 27 85 50 60
109 66 158 17z"/>
<path d="M2405 654 c-44 -23 -72 -52 -95 -99 -26 -54 -27 -154 -1 -211 43 -96
163 -145 272 -112 39 11 119 71 119 89 0 5 -18 21 -40 35 l-40 26 -36 -32
c-33 -29 -42 -32 -82 -27 -29 3 -53 13 -69 29 l-25 25 137 57 c76 31 141 56
146 56 25 0 -5 76 -50 123 -14 16 -38 35 -53 43 -36 19 -145 18 -183 -2z"/>
</g>
</svg>
